<svg xmlns="http://www.w3.org/2000/svg" xmlns:xlink="http://www.w3.org/1999/xlink" viewBox="0 0 100 100"><defs><style>.a{fill:none;}.b{clip-path:url(#a);}.c{fill:#051d30;}.d{fill:#e6e6e6;}</style><clipPath id="a"><path class="a" d="M-2035.75,323.65c-6.12,0-11.68-5-11.68-11.13s5-11.12,11.68-11.12,11.69,5,11.69,11.12-5.57,11.13-11.69,11.13ZM-1892.22,263c-1.11-8.9-6.68-16.13-13.91-21.69l-2.78-2.23-2.22,2.78c-4.45,5-6.12,13.91-5.57,20.59a30,30,0,0,0,5,13.9c-2.23,1.12-5,2.23-7.23,3.34a46.87,46.87,0,0,1-15,2.23H-2078l-.55,3.33a62.5,62.5,0,0,0,5,31.71l2.23,3.9v.55c13.35,22.26,37.27,32.27,63.42,32.27,50.07,0,91.23-21.7,110.7-68.43,12.8.56,25.59-2.78,31.71-15l1.67-2.78-2.78-1.67c-7.23-4.45-17.24-5-25.59-2.78Zm-71.76-8.9h-21.7v21.7h21.7Zm0-27.26h-21.7v21.7h21.7Zm0-27.81h-21.7v21.69h21.7Zm26.7,55.07H-1959v21.7h21.7Zm-80.67,0h-21.69v21.7h21.69v-21.7Zm27.26,0h-21.69v21.7h21.69Zm-54,0h-21.69v21.7h21.69v-21.7Zm54-27.26h-21.69v21.7h21.69Zm-27.26,0h-21.69v21.7h21.69v-21.7Z"/></clipPath></defs><title>icon-pythin</title><g class="b"><path class="c" d="M-2355.63,73.31H4736.21V915.56H-2355.63Z"/></g><path class="d" d="M83.71,28.44H80.06V31h3.65c4.31,0,6.23,1.09,6.23,7.56V56.32c0,9.51-.48,12.79-9.88,12.79H49.77v2.56H68.36V82.16c0,3.55-1,5.74-5.74,5.74H39c-4,0-5.84-1.82-5.84-5.74V58.63c0-4.36.29-7,5.85-7.07,4.89,0,11.82,0,17.39,0h6.19c7.54,0,7.54-6.66,7.54-9.5V19.86c0-3.61,0-10.32-10.15-10.32H40c-6.15,0-9.37,5.66-9.37,11.25v7.65H19.94C8.1,28.44,7.5,34.27,7.5,43.79V61.55c0,7.19,2.55,10.13,8.79,10.13h3.65V69.12H16.29c-4.31,0-6.23-1.09-6.23-7.57V43.79c0-9.51.48-12.79,9.88-12.79H50.23V28.44h-17V20.79C33.19,17.3,35,12.1,40,12.1H60c7.05,0,7.6,3.21,7.6,7.76v22.2c0,5.19-1.26,6.94-5,6.94H56.44C50.86,49,43.93,49,39,49c-8.38.06-8.38,5.82-8.38,9.63V82.16c0,5.35,3,8.3,8.39,8.3H62.62c8.29,0,8.29-6.25,8.29-8.3V71.67h9.15c11.84,0,12.44-5.83,12.44-15.35V38.56C92.5,31.37,90,28.44,83.71,28.44Z"/><circle class="d" cx="43.58" cy="20.51" r="2.26"/><path class="d" d="M58.73,80.24a2.27,2.27,0,1,0-2.26,2.26A2.27,2.27,0,0,0,58.73,80.24Z"/></svg>